<?xml version="1.0" ?><!DOCTYPE svg  PUBLIC '-//W3C//DTD SVG 1.1//EN'  'http://www.w3.org/Graphics/SVG/1.1/DTD/svg11.dtd'><svg enable-background="new 0 0 512 512" height="512px" id="Слой_1" version="1.1" viewBox="0 0 512 512" width="512px" xml:space="preserve" xmlns="http://www.w3.org/2000/svg" xmlns:xlink="http://www.w3.org/1999/xlink"><g id="last_fm_1_"><g><path d="M512,256.008c0,141.387-114.607,255.98-255.996,255.98C114.611,511.988,0,397.395,0,256.008    C0,114.619,114.611,0.012,256.004,0.012C397.393,0.012,512,114.619,512,256.008z" fill="#FB0014"/><path d="M313.762,249.414l51.943,26.779l16.461,56.516l-52.64,23.289l-68.03-57.227l-47.288-98.514l-75.694,28.906    l-14.977,108.889l171.037,171.045c103.162-15.594,186.066-92.734,210.223-192.818L394.611,206.086l-73.835,11.781L313.762,249.414    z" opacity="0.1"/></g><path d="M238.113,340.834L226.98,310.6c0,0-18.069,20.156-45.162,20.156   c-23.984,0-41.016-20.852-41.016-54.227c0-42.74,21.531-58.045,42.734-58.037c30.577,0,40.319,19.813,48.67,45.186l11.109,34.75   c11.133,33.719,31.969,60.828,92.101,60.828c43.101,0,72.288-13.203,72.288-47.953c0-28.148-15.984-42.766-45.875-49.719   l-22.233-4.859c-15.297-3.467-19.819-9.717-19.819-20.17c0-11.797,9.382-18.766,24.687-18.766c16.663,0,25.702,6.266,27.101,21.203   l34.75-4.156c-2.773-31.297-24.32-44.141-59.765-44.141c-31.288,0-61.866,11.797-61.866,49.688   c-0.008,23.639,11.469,38.592,40.312,45.529l23.633,5.563c17.718,4.172,23.632,11.484,23.632,21.563   c0,12.844-12.516,18.078-36.147,18.078c-35.093,0-49.694-18.438-58.038-43.813l-11.461-34.732   c-14.594-45.188-37.891-61.875-84.107-61.875c-51.094,0-78.211,32.313-78.211,87.232c0,52.844,27.109,81.328,75.781,81.328   C219.333,359.256,238.113,340.834,238.113,340.834L238.113,340.834z" fill="#F4F6F9" id="Last_fm_1_"/></g></svg>